<svg xmlns="http://www.w3.org/2000/svg" viewBox="0 0 24 24" fill="#cc4900" aria-hidden="true" id="Calendar--Streamline-Heroicons" height="24" width="24">
  <desc>
    Calendar Streamline Icon: https://streamlinehq.com
  </desc>
  <path fill-rule="evenodd" d="M6.75 2.25A0.75 0.75 0 0 1 7.5 3v1.5h9V3A0.75 0.75 0 0 1 18 3v1.5h0.75a3 3 0 0 1 3 3v11.25a3 3 0 0 1 -3 3H5.25a3 3 0 0 1 -3 -3V7.5a3 3 0 0 1 3 -3H6V3a0.75 0.75 0 0 1 0.75 -0.75Zm13.5 9a1.5 1.5 0 0 0 -1.5 -1.5H5.25a1.5 1.5 0 0 0 -1.5 1.5v7.5a1.5 1.5 0 0 0 1.5 1.5h13.5a1.5 1.5 0 0 0 1.5 -1.5v-7.5Z" clip-rule="evenodd" stroke-width="1"></path>
</svg>